# xmcd
#
# Track frame offsets:
#	150
#	18204
#	35308
#	54233
#	66240
#	79938
#	100924
#	122204
#
# Disc length: 1988 seconds
# Revision: 4
# Processed by: cddbd v1.5.2PL0 Copyright (c) Steve Scherf et al.
# Submitted via: dBpowerAMP V12.0
#
DISCID=5f07c208
DTITLE=Blues - the perfect blues collection 25 original albums (Sony 88697847832) - CD07 Jimmy Whitherspoon 1961 In Person
DYEAR=2011
DGENRE=Blues
TTITLE0=I'll Always Be In Love
TTITLE1=Gee, Baby Ain't I Good To You
TTITLE2=See See Rider
TTITLE3=I Make A Lot Of Money
TTITLE4=Blowin' The Blues
TTITLE5=Tain't Nobody's Business
TTITLE6=Everything You Do Is Wrong
TTITLE7=Roll 'Em Pete
EXTD=
EXTT0=
EXTT1=
EXTT2=
EXTT3=
EXTT4=
EXTT5=
EXTT6=
EXTT7=
PLAYORDER=
